<svg id="SvgjsSvg1024" width="288" height="288" xmlns="http://www.w3.org/2000/svg" version="1.1" xmlns:xlink="http://www.w3.org/1999/xlink" xmlns:svgjs="http://svgjs.com/svgjs"><defs id="SvgjsDefs1025"></defs><g id="SvgjsG1026"><svg xmlns="http://www.w3.org/2000/svg" enable-background="new 0 0 24 24" viewBox="0 0 24 24" width="288" height="288"><path fill="#ffffff" d="M12,0C5.383,0,0,5.383,0,12s5.383,12,12,12s12-5.383,12-12S18.617,0,12,0z" class="color303c42 svgShape"></path><path fill="#737376" d="M12,1c6.065,0,11,4.935,11,11c0,2.414-0.791,4.642-2.115,6.458c-0.116-0.075-0.23-0.144-0.346-0.204   C18.535,17.226,15.427,16,12,16s-6.535,1.226-8.54,2.255c-0.116,0.06-0.23,0.128-0.345,0.203C1.791,16.642,1,14.414,1,12   C1,5.935,5.935,1,12,1z" class="colorf2f2f2 svgShape"></path><path fill="#ffffff" d="M12,23c-3.289,0-6.237-1.458-8.254-3.753c0.057-0.035,0.115-0.073,0.172-0.102   C5.824,18.166,8.773,17,12,17s6.176,1.166,8.082,2.144c0.057,0.03,0.115,0.067,0.173,0.102C18.237,21.542,15.289,23,12,23z" class="color0288d1 svgShape"></path><circle cx="12" cy="9" r="6" fill="#ffffff" class="color303c42 svgShape"></circle><circle cx="12" cy="9" r="5" fill="#ffffff" class="color0288d1 svgShape"></circle><linearGradient id="a" x1="5.127" x2="16.807" y1="16.285" y2="21.732" gradientUnits="userSpaceOnUse"><stop offset="0" stop-color="#ffffff" stop-opacity=".2" class="stopColorfff svgShape"></stop><stop offset="1" stop-color="#ffffff" stop-opacity="0" class="stopColorfff svgShape"></stop></linearGradient><path fill="url(#a)" d="M4.68,20.18c2.079-1.223,5.296-2.68,8.815-2.68c1.735,0,3.396,0.356,4.883,0.862   C16.608,17.636,14.381,17,12,17c-3.227,0-6.176,1.166-8.082,2.145c-0.057,0.029-0.115,0.067-0.172,0.102   C4.037,19.578,4.352,19.886,4.68,20.18z"></path><path fill="#ffffff" d="M7.745,9.5c0-2.757,2.243-5,5-5c0.868,0,1.672,0.242,2.384,0.633   C14.27,4.436,13.19,4,12,4C9.243,4,7,6.243,7,9c0,1.889,1.066,3.517,2.616,4.367C8.484,12.45,7.745,11.066,7.745,9.5z" opacity=".2" class="colorfff svgShape"></path><linearGradient id="b" x1="1.125" x2="22.875" y1="6.929" y2="17.071" gradientUnits="userSpaceOnUse"><stop offset="0" stop-color="#ffffff" stop-opacity=".2" class="stopColorfff svgShape"></stop><stop offset="1" stop-color="#ffffff" stop-opacity="0" class="stopColorfff svgShape"></stop></linearGradient><path fill="url(#b)" d="M12,0C5.383,0,0,5.383,0,12s5.383,12,12,12s12-5.383,12-12S18.617,0,12,0z"></path></svg></g></svg>